<mxfile host="65bd71144e">
    <diagram id="HIP3nbAZw_EuaXWnEj3U" name="Page-1">
        <mxGraphModel dx="1696" dy="512" grid="1" gridSize="10" guides="1" tooltips="1" connect="1" arrows="1" fold="1" page="1" pageScale="1" pageWidth="850" pageHeight="1100" math="0" shadow="0">
            <root>
                <mxCell id="0"/>
                <mxCell id="1" parent="0"/>
                <mxCell id="7" value="http://ics2o.mths.ca" style="swimlane;whiteSpace=wrap;html=1;" parent="1" vertex="1">
                    <mxGeometry x="-810" y="160" width="760" height="520" as="geometry"/>
                </mxCell>
                <mxCell id="8" value="&lt;h2&gt;Temperature conversion&amp;nbsp;&lt;/h2&gt;" style="text;html=1;align=center;verticalAlign=middle;resizable=0;points=[];autosize=1;strokeColor=none;fillColor=none;" vertex="1" parent="7">
                    <mxGeometry x="30" y="40" width="240" height="60" as="geometry"/>
                </mxCell>
                <mxCell id="9" value="Enter temperature in &lt;font size=&quot;1&quot;&gt;&lt;sup&gt;0&lt;/sup&gt;F&lt;/font&gt;" style="text;html=1;align=center;verticalAlign=middle;resizable=0;points=[];autosize=1;strokeColor=none;fillColor=none;" vertex="1" parent="7">
                    <mxGeometry x="70" y="120" width="150" height="30" as="geometry"/>
                </mxCell>
                <mxCell id="14" value="" style="rounded=1;whiteSpace=wrap;html=1;fontSize=13;" vertex="1" parent="7">
                    <mxGeometry x="150" y="225" width="100" height="30" as="geometry"/>
                </mxCell>
                <mxCell id="16" value="Fahrenheit:" style="text;html=1;align=center;verticalAlign=middle;resizable=0;points=[];autosize=1;strokeColor=none;fillColor=none;fontSize=13;" vertex="1" parent="7">
                    <mxGeometry x="50" y="225" width="90" height="30" as="geometry"/>
                </mxCell>
                <mxCell id="23" value="Calculate" style="rounded=1;whiteSpace=wrap;html=1;fontSize=13;" vertex="1" parent="7">
                    <mxGeometry x="85" y="350" width="125" height="30" as="geometry"/>
                </mxCell>
                <mxCell id="24" value="Celsius is:&amp;nbsp;" style="text;html=1;align=center;verticalAlign=middle;resizable=0;points=[];autosize=1;strokeColor=none;fillColor=none;fontSize=13;" vertex="1" parent="7">
                    <mxGeometry x="100" y="420" width="90" height="30" as="geometry"/>
                </mxCell>
            </root>
        </mxGraphModel>
    </diagram>
</mxfile>